<svg xmlns="http://www.w3.org/2000/svg" width="360" height="343" viewBox="0 0 360 343" fill="none">
  <path fill-rule="evenodd" clip-rule="evenodd" d="M157.598 0.0290577C145.055 0.0290577 132.511 0.0217935 119.967 0.0145292C98.3 0.00198135 76.6322 -0.0105668 54.9663 0.0143218C50.3678 0.0175966 47.095 0.132212 45.1481 0.358172C23.5156 2.83391 5.12792 19.5402 0.948904 41.0064C0.388424 43.8947 0.106545 46.3148 0.103267 48.2666C0.0737685 81.6693 0.0491815 115.07 0.0295156 148.47L0.0294209 148.576C0.0244525 154.104 0.0210294 157.912 2.54184 161.919C4.61332 165.211 7.40097 167.37 10.9048 168.399C12.4879 168.864 15.7459 169.096 20.6788 169.096C68.0802 169.113 115.482 169.15 162.883 169.209C169.594 169.219 175.759 164.985 177.795 158.658C178.309 157.056 178.572 154.25 178.582 150.238C178.716 107.63 178.691 65.022 178.508 22.4138C178.505 21.6704 178.547 20.0789 178.636 17.6392C178.921 9.59305 174.87 2.82408 167.367 0.756057C165.61 0.271389 162.354 0.0290577 157.598 0.0290577ZM359.914 103.146V103.142C359.879 88.7129 359.842 73.8379 359.897 59.6874C359.92 53.6749 359.92 50.4001 359.897 49.863C359.333 36.6919 354.575 25.3808 345.624 15.9298C337.802 7.66748 327.109 2.19041 315.904 0.628343C312.969 0.220633 308.588 0.0192286 304.93 0.0241408C270.836 0.079812 236.744 0.0781773 202.653 0.0192313C199.391 0.0159565 196.989 0.230453 195.445 0.662724C189.796 2.25427 185.258 7.00434 184.132 12.7319C183.929 13.7569 183.821 16.904 183.808 22.1731C183.706 64.8468 183.65 107.52 183.641 150.194C183.641 153.97 183.836 156.475 184.226 157.71C186.645 165.307 191.946 169.106 200.131 169.106C248.063 169.122 296.002 169.116 343.948 169.086C345.858 169.083 347.451 168.883 348.726 168.487C354.095 166.814 357.545 163.395 359.076 158.23C359.587 156.505 359.857 153.782 359.887 150.062C359.995 136.278 359.956 120.017 359.914 103.146ZM165.145 342.511C171.933 340.873 176.166 337.074 177.844 331.114C178.352 329.3 178.609 326.148 178.616 321.658C178.678 278.29 178.685 234.923 178.636 191.555C178.632 188.889 178.447 186.877 178.08 185.518C176.684 180.36 172.687 175.978 167.51 174.671C166.241 174.354 163.221 174.19 158.449 174.18C112.335 174.105 66.2202 174.12 20.1035 174.224C15.5836 174.234 12.4682 174.498 10.7573 175.015C4.04137 177.054 -0.00981511 183.356 1.7859e-05 190.351C0.0459051 223.194 0.0606527 256.04 0.0442644 288.889C0.0442644 293.248 0.191764 296.516 0.486753 298.694C3.73163 322.557 23.0534 339.632 46.5001 342.491C48.7093 342.763 51.982 342.9 56.3184 342.904C91.7466 342.94 127.176 342.944 162.608 342.918C163.473 342.918 164.318 342.712 165.143 342.511L165.145 342.511ZM211.665 342.933C243.048 342.933 274.432 342.926 305.815 342.913C309.008 342.913 311.389 342.823 312.959 342.643C338.962 339.696 359.843 318.868 359.941 292.284C360.023 268.473 360.02 234.685 359.931 190.921C359.916 183.607 356.411 176.98 349.184 174.858C347.817 174.455 345.78 174.256 343.072 174.259C340.248 174.264 337.129 174.231 334.203 174.2C331.785 174.175 329.499 174.151 327.62 174.151C286.675 174.144 245.733 174.144 204.791 174.151C199.999 174.151 196.743 174.37 195.022 174.809C189.535 176.201 185.981 179.752 184.358 185.464C183.939 186.947 183.727 188.917 183.724 191.373C183.698 235.35 183.706 279.329 183.749 323.309C183.752 326.577 183.982 329.04 184.437 330.697C186.541 338.301 192.564 342.29 200.244 342.849C203.047 343.054 206.292 343.004 208.982 342.962H208.982C209.967 342.947 210.878 342.933 211.665 342.933ZM71.5693 86.7534C83.9048 79.4588 91.6433 68.2787 91.5794 53.665C91.5565 47.8425 90.5584 42.015 88.5853 36.1826C88.5263 36.0189 88.5853 35.937 88.7622 35.937C97.6808 35.9567 106.144 37.879 114.151 41.7039C114.308 41.7759 114.456 41.7612 114.593 41.6597C116.511 40.2417 118.422 38.8401 120.326 37.4549C124.974 34.0655 129.907 31.164 135.125 28.7505C137.236 27.7746 139.438 27.1115 141.732 26.7611C146.733 25.9948 147.863 30.2635 148.473 34.5174C150.331 47.4757 150.282 60.8172 149.658 73.8737C149.638 74.3453 149.805 75.1705 150.012 75.7354C155.012 89.4993 152.642 105.547 145.312 117.951C145.285 117.997 145.249 118.037 145.205 118.068C145.162 118.1 145.112 118.121 145.059 118.132C145.007 118.143 144.953 118.142 144.9 118.13C144.848 118.119 144.799 118.096 144.756 118.064L133.394 109.629C133.32 109.575 133.234 109.54 133.144 109.526C133.053 109.512 132.961 109.521 132.874 109.551C132.787 109.581 132.709 109.631 132.647 109.698C132.584 109.765 132.538 109.846 132.514 109.934C130.852 115.956 132.681 124.233 134.859 129.956C134.933 130.149 134.948 130.359 134.905 130.561C134.861 130.763 134.76 130.949 134.613 131.096C106.835 158.781 59.2191 154.866 36.9277 122.539C29.8119 112.216 26.5785 100.57 27.2275 87.5983C27.2341 87.4411 27.3144 87.3805 27.4684 87.4166C38.1126 89.9807 48.5011 91.8523 59.5534 90.9386C60.2548 90.8829 60.3384 90.6258 59.8042 90.1674C57.926 88.566 57.0509 86.5569 57.1787 84.1401C57.7294 73.7951 73.2114 75.6421 71.3972 86.6355C71.371 86.7993 71.4284 86.8386 71.5693 86.7534ZM121.855 84.4496C121.855 82.5619 121.105 80.7515 119.769 79.4166C118.433 78.0818 116.621 77.3319 114.731 77.3319C112.842 77.3319 111.03 78.0818 109.694 79.4166C108.358 80.7515 107.607 82.5619 107.607 84.4496C107.607 86.3373 108.358 88.1478 109.694 89.4826C111.03 90.8174 112.842 91.5673 114.731 91.5673C116.621 91.5673 118.433 90.8174 119.769 89.4826C121.105 88.1478 121.855 86.3373 121.855 84.4496ZM93.1035 108.843C93.201 108.834 93.2954 108.826 93.3874 108.819C93.8804 108.778 94.3054 108.743 94.7653 108.519C98.964 106.441 102.936 100.787 99.7899 96.2044C98.7608 94.7046 97.4431 93.8842 95.8371 93.7434C94.0901 93.5961 90.6469 93.6026 85.5075 93.7631C78.9391 93.9645 77.9853 100.139 81.0729 104.727C82.6527 107.078 84.7602 108.581 87.3955 109.236C87.5594 109.276 87.6429 109.379 87.6462 109.546C87.7282 112.045 87.7298 114.542 87.6511 117.037C87.5626 119.871 84.9274 122.322 82.1053 122.249C81.4973 122.232 80.8309 121.821 80.1505 121.402C78.8173 120.58 77.4303 119.725 76.3235 121.738C75.1829 123.816 77.0217 126.434 78.9391 127.151C83.9441 129.023 87.3021 126.341 90.0504 122.519C90.1815 122.342 90.3011 122.349 90.4093 122.539C92.2382 125.766 95.9207 128.271 99.6818 127.672C101.904 127.318 104.618 125.604 104.628 123.054C104.638 121.329 103.751 120.469 101.968 120.475C101.824 120.476 101.682 120.518 101.56 120.598C101.508 120.634 101.457 120.669 101.406 120.705L101.297 120.781L101.162 120.875C99.4515 122.072 97.9871 123.096 95.8272 121.649C92.602 119.493 92.5332 117.111 92.5774 113.284C92.5938 111.912 92.6643 110.54 92.7889 109.168C92.8052 108.974 92.9101 108.866 93.1035 108.843ZM244.399 43.88L246.97 42.6225C247.174 42.5229 247.4 42.4803 247.626 42.4993C247.852 42.5184 248.069 42.5983 248.253 42.7306C253.107 46.2149 257.265 50.3117 260.726 55.0208C261.641 56.2636 263.824 59.0684 265.495 57.3983C269.802 53.0805 269.006 43.1825 267.472 38.0001C267.373 37.6661 267.498 37.4991 267.845 37.4991C274.617 37.4729 281.172 38.6174 287.511 40.9327C287.535 40.9421 287.557 40.9569 287.574 40.976C287.591 40.995 287.604 41.0177 287.611 41.0422C287.617 41.0667 287.618 41.0923 287.613 41.1168C287.607 41.1414 287.596 41.1641 287.58 41.1832C277.052 54.2005 271.116 69.0844 269.773 85.8349C269.753 86.0641 269.835 86.3392 270.018 86.6601C270.133 86.8599 270.312 87.0711 270.554 87.2938C275.953 92.2518 281.741 96.6793 287.919 100.576C298.952 107.532 311.671 111.678 324.631 113.068C324.658 113.071 324.685 113.08 324.709 113.094C324.733 113.109 324.752 113.129 324.767 113.152C324.777 113.168 324.784 113.186 324.788 113.204C324.789 113.207 324.789 113.211 324.79 113.214C324.791 113.219 324.791 113.224 324.792 113.229C324.794 113.257 324.789 113.284 324.778 113.309C316.14 133.768 296.538 147.301 274.61 149.202C247.697 151.53 223.676 136.533 213.213 111.806C209.01 101.873 207.554 89.18 210.504 78.4617C210.884 77.0863 211.061 76.1513 211.035 75.6568C210.422 63.5893 210.719 51.9212 211.925 40.6527L211.941 40.5061C212.225 37.8172 212.759 32.7597 214.516 30.681C216.122 28.7784 218.34 28.4067 221.168 29.5659C228.022 32.379 234.202 36.0418 239.708 40.5545C241.377 41.9233 242.797 43.0204 243.971 43.8456C244.105 43.9406 244.248 43.9521 244.399 43.88ZM250.613 86.5619C250.613 85.6252 250.428 84.6977 250.07 83.8324C249.711 82.967 249.185 82.1808 248.522 81.5184C247.859 80.8561 247.072 80.3307 246.206 79.9723C245.34 79.6139 244.412 79.4294 243.474 79.4294C241.581 79.4294 239.765 80.1808 238.426 81.5184C237.088 82.856 236.336 84.6702 236.336 86.5619C236.336 88.4535 237.088 90.2677 238.426 91.6053C239.765 92.9429 241.581 93.6943 243.474 93.6943C244.412 93.6943 245.34 93.5098 246.206 93.1514C247.072 92.793 247.859 92.2676 248.522 91.6053C249.185 90.943 249.711 90.1567 250.07 89.2913C250.428 88.426 250.613 87.4985 250.613 86.5619ZM269.089 125.412C269.111 125.383 269.139 125.36 269.172 125.345C269.205 125.33 269.24 125.322 269.276 125.324C269.289 125.325 269.302 125.327 269.315 125.33C269.337 125.335 269.357 125.344 269.376 125.356C269.406 125.375 269.431 125.401 269.448 125.432C271.823 129.524 277.157 132.898 281.803 130.064C284.276 128.556 285.441 124.528 281.675 123.978C281.517 123.956 281.358 123.991 281.228 124.076C279.158 125.388 276.769 126.223 274.645 124.656C271.027 121.985 271.431 117.612 271.834 113.251L271.852 113.053C271.869 112.893 271.954 112.791 272.108 112.749C276.346 111.606 279.042 108.893 280.195 104.609C280.918 101.927 278.966 99.0535 276.749 97.8451C275.848 97.3539 274.546 97.0886 272.845 97.0493C270.453 96.997 268.06 97.0035 265.667 97.069C262.526 97.1476 260.107 97.8549 258.848 100.719C258.153 102.297 258.171 104.084 258.902 106.078C260.131 109.438 262.616 111.67 266.356 112.773C266.506 112.819 266.585 112.919 266.592 113.073C266.608 113.381 266.63 113.713 266.652 114.064C266.826 116.774 267.069 120.56 265.859 122.583C264.905 124.174 263.425 125.142 261.419 125.486C260.544 125.636 259.833 125.243 259.107 124.843C258.41 124.458 257.699 124.065 256.818 124.14C254.772 124.312 254.325 126.336 254.984 127.996C255.534 129.385 256.508 130.283 257.904 130.693C262.904 132.157 266.233 129.249 269.089 125.412ZM295.043 44.5726C311.312 54.1661 324.778 69.3398 328.259 88.399C328.273 88.4827 328.311 88.5606 328.369 88.623C328.426 88.6855 328.501 88.7299 328.583 88.7507C328.666 88.7715 328.752 88.768 328.833 88.7404C328.913 88.7128 328.984 88.6625 329.036 88.5955C329.134 88.4711 329.182 88.25 329.178 87.9323C329.09 78.311 328.89 68.6914 328.579 59.0733C328.369 52.7399 327.851 46.4343 327.025 40.1566C326.681 37.5597 326.225 35.3459 325.658 33.5153C323.338 26.0636 315.139 30.4784 310.599 32.9228L310.456 32.9995C304.796 36.0451 299.637 39.7047 294.979 43.9782C294.936 44.0169 294.903 44.0652 294.882 44.1193C294.862 44.1734 294.854 44.2317 294.86 44.2896C294.867 44.3475 294.887 44.4032 294.918 44.4524C294.95 44.5016 294.993 44.5428 295.043 44.5726ZM293.563 93.5421C297.438 93.5421 300.579 90.4037 300.579 86.5324C300.579 82.661 297.438 79.5227 293.563 79.5227C289.689 79.5227 286.548 82.661 286.548 86.5324C286.548 90.4037 289.689 93.5421 293.563 93.5421ZM305.427 275.823C303.883 262.38 302.89 252.986 302.448 247.642C301.566 236.958 301.627 226.758 301.689 216.455C301.705 213.655 301.722 210.847 301.72 208.02C301.72 207.612 301.548 206.94 301.317 206.674C290.245 193.844 273.091 189.811 257.034 194.497C249.554 196.681 243.396 200.791 238.558 206.827C238.086 207.416 237.855 208.202 237.855 208.895C237.85 211.666 237.862 214.448 237.875 217.236L237.875 217.241C237.925 228.42 237.976 239.694 236.906 250.756C236.05 259.569 235.142 268.373 234.182 277.169C233.753 281.095 233.992 285.248 234.9 289.626C237.633 302.805 246.478 311.372 259.561 314.221C267.309 315.908 274.989 315.724 282.6 313.671C294.512 310.454 302.285 301.744 304.714 289.872C305.707 285.015 305.945 280.332 305.427 275.823ZM251.452 256.363C250.567 256.558 249.655 256.573 248.768 256.407C246.976 256.072 245.394 255.02 244.371 253.482C243.348 251.944 242.967 250.046 243.311 248.206C243.482 247.295 243.826 246.425 244.323 245.647C244.82 244.869 245.461 244.197 246.209 243.67C246.957 243.143 247.798 242.771 248.683 242.575C249.568 242.38 250.48 242.365 251.367 242.531C253.159 242.866 254.74 243.918 255.763 245.456C256.787 246.994 257.168 248.892 256.823 250.732C256.653 251.643 256.309 252.513 255.812 253.291C255.314 254.07 254.674 254.741 253.925 255.268C253.177 255.795 252.337 256.167 251.452 256.363ZM293.219 255.518C291.635 256.467 289.756 256.739 287.995 256.274C287.123 256.044 286.306 255.64 285.591 255.085C284.876 254.53 284.277 253.834 283.828 253.039C283.378 252.243 283.088 251.363 282.973 250.448C282.858 249.533 282.92 248.601 283.157 247.706C283.635 245.899 284.793 244.35 286.376 243.401C287.96 242.451 289.838 242.179 291.6 242.644C292.472 242.874 293.289 243.279 294.004 243.834C294.719 244.389 295.318 245.084 295.767 245.88C296.217 246.675 296.507 247.556 296.622 248.471C296.737 249.386 296.675 250.317 296.438 251.212C295.96 253.02 294.802 254.568 293.219 255.518ZM278.135 297.029C274.733 297.029 271.705 294.548 269.886 291.728C269.86 291.691 269.826 291.659 269.787 291.636C269.764 291.623 269.741 291.613 269.716 291.607C269.697 291.601 269.677 291.598 269.658 291.597C269.612 291.594 269.567 291.602 269.526 291.62C269.496 291.632 269.468 291.65 269.444 291.672L269.439 291.677L269.432 291.684C269.427 291.689 269.423 291.694 269.419 291.699C269.322 291.815 269.227 291.93 269.133 292.044L269.119 292.061C267.612 293.883 266.28 295.493 263.779 296.42C260.687 297.564 255.559 296.729 255.067 292.819C254.831 290.938 256.08 289.371 258.066 289.872C258.642 290.016 259.116 290.323 259.589 290.629C260.417 291.165 261.242 291.699 262.609 291.365C267.962 290.059 267.383 283.942 266.917 279.016L266.911 278.957C266.898 278.806 266.819 278.706 266.675 278.657C262.65 277.292 260.059 274.709 258.902 270.911C257.55 266.47 259.885 262.992 264.561 263.027C267.953 263.05 271.343 263.046 274.728 263.017C280.687 262.973 282.295 268.116 279.905 272.763C278.388 275.713 275.921 277.654 272.506 278.584C272.339 278.629 272.25 278.739 272.241 278.913C272.229 279.107 272.217 279.302 272.204 279.497C272.192 279.671 272.181 279.845 272.169 280.019C271.867 284.545 271.573 288.94 275.997 291.011C277.947 291.924 279.285 291.123 280.733 290.256C281.015 290.087 281.301 289.916 281.597 289.754C281.728 289.682 281.869 289.656 282.02 289.675C283.862 289.918 284.701 290.91 284.537 292.652C284.266 295.55 280.658 297.034 278.135 297.029ZM41.9966 294.111C41.2373 294.258 40.3284 294.58 39.3549 294.925C36.9436 295.779 34.1364 296.774 32.2276 295.594C29.9758 294.204 30.5756 290.053 30.9739 287.602C31.5212 284.219 32.2292 280.892 33.0978 277.621C33.1161 277.55 33.1157 277.475 33.0966 277.405C33.0776 277.334 33.0404 277.27 32.9889 277.218C32.9373 277.166 32.8731 277.128 32.8026 277.108C32.732 277.088 32.6576 277.087 32.5865 277.105C30.2364 277.698 27.8306 277.78 25.3691 277.351C21.7719 276.723 22.387 274.474 23.1207 271.79L23.1777 271.581C23.1953 271.517 23.2129 271.452 23.2304 271.387C25.4232 263.289 28.0846 255.351 31.2148 247.573C31.241 247.508 31.2532 247.439 31.2506 247.369C31.2481 247.3 31.2308 247.232 31.2 247.17C24.6709 233.714 22.4634 219.516 24.5775 204.577C25.1577 200.495 28.2157 199.881 32.0604 199.321C43.1717 197.7 53.7028 199.421 63.6538 204.483C64.8101 205.073 66.1179 205.858 67.45 206.659L67.4514 206.66L67.4519 206.66C68.396 207.228 69.3528 207.803 70.2763 208.32C70.4238 208.402 70.5778 208.418 70.7384 208.369C72.1642 207.947 72.646 207.067 72.6411 205.554L72.6408 205.47C72.6308 202.854 72.619 199.754 74.2193 197.577C76.5104 194.453 80.2616 195.425 82.7297 197.611C85.3387 199.917 87.4725 202.743 89.131 206.09C89.3539 206.542 89.4669 206.904 89.4702 207.175C89.6275 222.652 89.6603 238.196 89.5686 253.807C89.5668 253.929 89.6061 254.048 89.6801 254.145C89.754 254.242 89.8585 254.311 89.9766 254.342C101.114 257.332 109.905 263.659 116.349 273.323C122.052 281.87 124.795 294.008 120.651 303.586C120.097 304.864 119.051 306.247 117.514 307.737C113.355 311.77 108.63 314.118 102.818 315.548C88.1772 319.153 71.7512 315.901 61.0677 304.947C60.8934 304.769 60.6674 304.651 60.4226 304.609C60.1778 304.568 59.9268 304.605 59.7058 304.716C56.1561 306.501 52.4769 308.14 48.6683 309.633C45.5283 310.861 43.5699 309.864 42.7931 306.642C42.0294 303.459 41.8819 299.388 42.3506 294.43C42.3768 294.168 42.2588 294.062 41.9966 294.111ZM73.2655 252.922C73.2655 251.039 72.5165 249.232 71.1832 247.9C69.85 246.568 68.0417 245.819 66.1563 245.819C64.2708 245.819 62.4625 246.568 61.1293 247.9C59.796 249.232 59.047 251.039 59.047 252.922C59.047 254.806 59.796 256.613 61.1293 257.945C62.4625 259.277 64.2708 260.025 66.1563 260.025C68.0417 260.025 69.85 259.277 71.1832 257.945C72.5165 256.613 73.2655 254.806 73.2655 252.922ZM89.9815 290.726C90.0014 290.694 90.0294 290.668 90.0627 290.65C90.096 290.632 90.1334 290.623 90.1712 290.624C90.209 290.625 90.2459 290.636 90.2782 290.656C90.3105 290.675 90.337 290.703 90.3552 290.736C92.7102 295.147 98.2363 297.79 102.617 294.337C103.548 293.603 104.094 292.794 104.254 291.91C104.574 290.137 103.364 288.604 101.506 288.929C101.116 288.994 100.85 289.089 100.709 289.213C98.9918 290.71 97.2203 290.885 95.3946 289.739C92.6985 288.055 92.6882 285.758 92.6738 282.549C92.673 282.37 92.6722 282.187 92.6709 282.002C92.661 280.64 92.7069 279.284 92.8085 277.935C92.8216 277.762 92.9134 277.658 93.0838 277.626C96.8007 276.938 99.372 274.29 100.729 270.862C101.973 267.728 100.586 264.294 97.6562 262.86C96.5647 262.326 94.7686 262.041 92.2677 262.005C88.7704 261.959 86.2909 262.02 84.8291 262.187C81.4023 262.585 78.5409 265.994 79.3914 269.56C80.4108 273.866 83.0903 276.655 87.4299 277.925C87.5938 277.971 87.6757 278.079 87.6757 278.25C87.6812 278.792 87.6973 279.404 87.7143 280.047C87.773 282.276 87.8416 284.884 87.5135 286.291C86.9727 288.604 84.5832 290.589 82.1004 290.383C81.4023 290.324 80.8567 289.985 80.3157 289.649C79.687 289.259 79.0646 288.873 78.2164 288.933C77.3085 288.999 76.6808 289.449 76.3334 290.284C75.414 292.47 77.474 294.818 79.4357 295.467C83.8556 296.931 87.6806 294.371 89.9815 290.726ZM307.182 214.573C307.117 218.811 307.149 223.078 307.28 227.374C307.614 238.219 309.756 246.826 312.751 258.855L312.762 258.901C312.901 259.46 313.042 260.026 313.185 260.6C315.62 270.382 316.538 280.002 315.938 289.459C315.88 290.38 315.735 291.57 315.575 292.883L315.575 292.885C315.226 295.757 314.805 299.217 315.058 301.735C315.648 307.614 321.548 308.671 326.032 306.19C329.906 304.043 331.853 301.499 332.841 297.191C333.225 295.511 333.413 293.993 333.407 292.637C333.361 284.755 331.594 276.969 328.107 269.28C327.422 267.769 326.73 266.255 326.036 264.738C322.893 257.867 319.723 250.936 317.133 243.943C315.239 238.821 313.955 234.116 312.674 229.423L312.674 229.421L312.673 229.419C311.963 226.817 311.254 224.218 310.442 221.553C309.694 219.104 308.711 216.752 307.492 214.499C307.474 214.468 307.445 214.442 307.412 214.428C307.378 214.413 307.34 214.409 307.305 214.418C307.27 214.426 307.238 214.446 307.216 214.474C307.194 214.502 307.182 214.537 307.182 214.573ZM221.35 247.548C223.703 241.732 225.783 235.098 227.589 227.644C228.843 222.457 229.88 218.994 232.152 214.951C232.157 214.942 232.164 214.933 232.172 214.925C232.185 214.912 232.201 214.901 232.218 214.894C232.237 214.886 232.257 214.882 232.277 214.882C232.281 214.882 232.285 214.882 232.29 214.883C232.295 214.883 232.3 214.884 232.305 214.885C232.31 214.886 232.314 214.887 232.319 214.889C232.322 214.89 232.326 214.891 232.329 214.892C232.332 214.893 232.335 214.895 232.338 214.896C232.347 214.901 232.356 214.906 232.363 214.913C232.367 214.916 232.371 214.919 232.374 214.923C232.376 214.924 232.377 214.926 232.379 214.927C232.398 214.949 232.41 214.976 232.412 215.005C233.028 224.617 232.46 234.146 230.706 243.594C229.999 247.413 228.864 251.851 227.729 256.294L227.729 256.295C227.136 258.612 226.543 260.931 226.011 263.164C223.762 272.586 223.117 282.124 224.074 291.778C224.497 296.077 224.744 298.863 224.816 300.133C224.929 302.123 224.403 304.407 223.007 305.866C219.079 309.972 211.232 305.738 208.897 302.118C203.897 294.361 207.073 281.649 209.993 273.745C211.569 269.473 213.72 264.756 215.943 259.877C217.79 255.824 219.688 251.661 221.35 247.548ZM122.347 252.976C122.347 256.888 119.173 260.06 115.257 260.06C111.342 260.06 108.168 256.888 108.168 252.976C108.168 249.064 111.342 245.893 115.257 245.893C119.173 245.893 122.347 249.064 122.347 252.976Z" fill="url(#paint0_linear_8_85)"/>
  <defs>
    <linearGradient id="paint0_linear_8_85" x1="360" y1="0" x2="-7.00001" y2="343" gradientUnits="userSpaceOnUse">
      <stop offset="0.213542" stop-color="#9333EA"/>
      <stop offset="1" stop-color="#9333EA" stop-opacity="0.5"/>
    </linearGradient>
  </defs>
</svg>